<?xml version="1.0" encoding="utf-8"?>
<!DOCTYPE svg PUBLIC "-//W3C//DTD SVG 1.1//EN" "http://www.w3.org/Graphics/SVG/1.1/DTD/svg11.dtd">
<svg version="1.1" xmlns="http://www.w3.org/2000/svg" width="1405px" height="994px" viewBox="7 30 1405 994">
	<path fill="#224445" d="M1072.419,710.692c4.604-4.53,8.493-8.104,12.098-11.946c23.138-24.663,49.019-45.974,77.469-64.254 c25.62-16.463,53.217-28.161,82.816-35.133c17.039-4.014,34.347-6.678,51.856-6.062c9.072,0.319,18.139,2.32,27.087,4.15 c6.067,1.241,7.424,6.347,3.131,10.849c-12.051,12.641-24.009,25.385-36.498,37.582c-6.287,6.141-14.097,9.779-23.387,9.775 c-20.487-0.01-40.862,2.088-60.797,6.577c-21.169,4.768-41.432,12.457-59.898,24.136c-13.783,8.716-27.334,17.8-40.936,26.8 c-1.722,1.14-3.123,2.759-4.673,4.156c0.187,0.415,0.373,0.83,0.561,1.245c2.053-0.605,4.128-1.143,6.152-1.827 c18.037-6.104,36.259-7.539,54.287-0.604c6.228,2.396,12.127,6.219,17.396,10.379c5.69,4.491,6.022,11.803,6.147,18.396 c0.312,16.486-4.203,31.59-12.732,45.918c-13.375,22.466-31.083,40.428-52.112,55.719c-10.303,7.491-20.642,14.546-32.43,19.415 c-7.093,2.93-14.44,4.011-22.015,3.294c-34.375-3.255-68.088,0.912-101.555,8.581c-25.468,5.836-49.04,16.893-73.373,25.876 c-20.435,7.543-40.847,15.275-61.671,21.6c-25.311,7.687-50.839,14.907-76.651,20.609c-24.166,5.338-48.798,8.625-73.282,12.436 c-14.781,2.3-29.642,4.234-44.529,5.668c-13.079,1.259-26.242,2.075-39.378,2.23c-28.281,0.337-56.582,0.677-84.851-0.009 c-32.283-0.782-64.505-3.005-96.046-10.771c-35.058-8.631-67.259-23.404-95.994-45.346c-17.964-13.716-31.44-30.747-39.04-52.464 c-6.711-19.179-11.275-38.644-11.942-58.949c-0.476-14.468-1.273-28.963-0.83-43.413c0.643-20.924,2.249-41.817,3.497-62.722 c1.087-18.229,2.273-36.456,3.365-54.687c0.709-11.854,0.685-12.076-11.193-12.951c-7.782-0.574-15.619-0.383-23.431-0.56 c-14.821-0.335-29.69-0.054-44.449-1.19c-19.076-1.47-38.142-3.56-57.062-6.381c-12.791-1.907-25.562-4.786-37.891-8.664 c-8.266-2.602-16.184-7.048-23.447-11.888c-7.289-4.854-9.673-13.109-9.509-21.576c0.479-24.709,4.499-48.869,15.507-71.157 c11.973-24.242,27.696-45.893,49.031-62.964c24.077-19.268,50.193-35.204,79.102-46.062c8.49-3.189,13.433-8.042,17.251-16.27 c11.268-24.28,22.841-48.481,35.749-71.913c8.225-14.931,18.483-28.856,28.839-42.464c9.804-12.882,22.71-22.409,37.828-28.596 c9.299-3.805,17.903-1.072,25.478,4.249c7.995,5.617,13.831,13.37,17.825,22.39c0.317,0.717,0.823,1.351,1.685,2.736 c1.363-1.758,2.365-3.142,3.459-4.448c14.512-17.329,26.56-36.659,43.277-52.218c12.494-11.627,25.777-21.999,40.504-30.684 c22.818-13.456,45.291-27.549,69.967-37.47c18.92-7.607,38.451-13.055,58.867-14.908c8.04-0.729,11.819,2.34,11.177,10.465 c-0.398,5.043-1.627,10.276-3.688,14.885c-8.523,19.062-21.05,35.348-35.482,50.357c-4.781,4.974-10.283,5.936-15.93,4.406 c-27.231-7.381-51.162,1.759-74.616,13.997c-17.963,9.373-34.411,20.929-49.578,34.316c-4.949,4.369-9.657,9.014-14.427,13.584 c-0.522,0.502-0.713,1.352-1.606,3.137c6.402-1.668,11.781-3.122,17.188-4.468c12.893-3.211,25.963-3.948,38.13,1.823 c12.631,5.991,19.877,16.615,22.175,30.66c3.151,19.262-3.768,35.4-15.314,49.934c-11.27,14.183-22.578,28.403-34.873,41.678 c-10.197,11.011-22.192,20.245-37.093,24.398c-4.095,1.141-8.544,1.165-12.847,1.374c-25.927,1.26-52.014,1.077-77.741,4.035 c-21.539,2.476-42.693,8.367-63.208,16.007c-15.716,5.853-32.271,9.822-47.322,17.002c-19.637,9.367-38.542,20.467-56.967,32.081 c-7.326,4.619-13.686,11.766-16.028,21.04c-1.727,6.836-0.204,10.477,5.55,14.478c20.708,14.402,43.946,20.896,68.857,22.616 c15.425,1.066,30.796,2.901,46.216,4.068c11.279,0.854,22.602,1.124,33.898,1.771c4.566,0.264,4.681-3.201,4.926-6.004 c0.521-5.963,0.519-11.971,0.8-17.957c0.335-7.137,1.094-14.273,1.021-21.404c-0.075-7.293,4.065-12.537,7.714-18.008 c9.792-14.674,19.772-29.222,29.78-43.75c0.947-1.374,2.615-2.252,3.948-3.359c0.547,1.601,1.63,3.226,1.558,4.797 c-0.791,17.104-1.765,34.2-2.682,51.299c-0.374,6.974-0.777,13.946-1.081,20.923c-0.42,9.64-0.74,19.281-1.141,28.92 c-0.158,3.79,1.132,5.055,5.31,4.908c14.271-0.496,28.563-0.501,42.848-0.51c19.937-0.013,39.875,0.319,59.81,0.175 c22.401-0.164,44.801-0.619,67.199-1.093c17.302-0.366,34.596-1.14,51.897-1.399c23.469-0.354,46.94-0.332,70.41-0.58 c21.638-0.229,43.275-0.479,64.909-0.938c26.452-0.562,52.896-1.419,79.348-2.031c32.771-0.759,65.541-1.559,98.316-2.027 c19.276-0.274,38.563,0.212,57.846,0.078c29.089-0.202,58.177-0.612,87.265-1c26.923-0.357,53.849-0.61,80.765-1.258 c30.596-0.735,61.182-1.874,91.771-2.802c21.449-0.651,42.919-2.104,64.346-1.63c23.743,0.522,47.67,1.058,70.897,6.856 c9.204,2.297,17.55,7.756,20.766,17.039c4.799,13.852-2.218,22.316-14.707,27.26c-5.777,2.286-12.281,3.304-18.534,3.724 c-22.034,1.479-44.109,2.349-66.156,3.646c-19.928,1.173-39.825,2.922-59.763,3.839c-24.062,1.105-48.156,1.461-72.227,2.412 c-15.119,0.6-30.218,1.731-45.329,2.558c-13.782,0.753-27.573,1.398-41.358,2.12c-17.758,0.93-35.511,1.929-53.27,2.818 c-15.609,0.782-31.222,1.571-46.841,2.155c-32.258,1.206-64.522,2.223-96.781,3.429c-16.604,0.621-33.192,1.616-49.798,2.202 c-17.427,0.615-34.87,0.795-52.297,1.435c-26.257,0.962-52.514,1.998-78.756,3.309c-18.093,0.902-36.146,2.912-54.241,3.383 c-32.592,0.848-65.205,0.87-97.808,1.317c-16.478,0.226-32.95,0.691-49.426,0.934c-26.948,0.396-53.898,0.641-80.846,1.059 c-12.979,0.202-25.956,0.849-38.934,0.889c-4.649,0.014-6.3,2.121-6.562,6.185c-1.044,16.247-2.16,32.491-3.058,48.747 c-0.799,14.444-1.981,28.908-1.846,43.354c0.181,19.271,0.457,38.602,4.371,57.631c6.4,31.122,24.087,54.216,50.016,71.849 c19.012,12.931,39.559,21.253,62.09,26.193c22.535,4.941,45.221,7.536,68.084,9.416c18.712,1.539,37.414,3.416,56.159,4.305 c17.386,0.825,34.83,0.895,52.239,0.644c16.951-0.243,33.915-0.979,50.833-2.108c19.063-1.272,38.153-2.671,57.104-5.035 c21.771-2.717,43.54-5.853,65.04-10.153c13.638-2.729,26.769-7.97,40.153-11.988c15.628-4.692,31.336-9.122,46.915-13.968 c12.559-3.905,25.022-8.131,37.415-12.538c2.093-0.744,4.251-2.791,5.283-4.8c17.455-33.936,35.576-67.53,57.154-99.021 c12.006-17.521,24.469-35.213,42.252-47.541c8.06-5.587,17.436-9.934,26.837-12.786c18.227-5.53,32.436,3.919,38.679,21.312 C1069.716,700.329,1070.75,704.869,1072.419,710.692z M930.621,825.926c0.405,0.408,0.812,0.816,1.217,1.226 c8.516-2.521,17.207-4.564,25.505-7.666c15.109-5.647,29.97-11.959,44.96-17.925c10.978-4.366,21.98-8.667,33.005-12.908 c6.041-2.324,10.877-6.213,11.05-12.833c0.192-7.388-0.116-15.083-2.018-22.16c-3.132-11.667-17.989-24.869-34.073-19.203 c-7.271,2.562-14.354,6.278-20.729,10.632c-12.373,8.45-21.507,20.325-30.245,32.237c-7.167,9.769-13.286,20.33-19.52,30.75 C936.349,813.801,933.646,819.962,930.621,825.926z M1021.849,834.714c0.283,0.461,0.566,0.922,0.851,1.383 c2.756-0.356,5.537-0.581,8.265-1.094c14.695-2.767,29.354-5.727,44.068-8.386c18.131-3.277,36.298-6.363,54.465-9.439 c3.914-0.663,5.955-2.843,7.335-6.49c3.617-9.557,4.057-19.427,3.852-29.465c-0.174-8.508-2.773-15.979-8.461-22.313 c-4.035-4.495-8.979-6.29-15.145-5.875c-15.227,1.023-26.988,9.521-37.98,18.483c-20.173,16.45-36.637,36.581-52.669,56.992 C1024.841,830.53,1023.372,832.644,1021.849,834.714z M249.775,376.288c3.256-0.257,4.932-0.078,6.393-0.556 c9.01-2.949,18.003-5.957,26.94-9.118c10.194-3.604,20.365-7.284,30.472-11.125c11.828-4.493,23.656-9.006,35.284-13.98 c2.085-0.892,4.511-4.041,4.539-6.178c0.152-11.812-0.297-23.577-5.574-34.649c-4.5-9.438-12.663-13.784-21.855-16.62 c-2.397-0.74-5.85-0.095-8.134,1.159c-14.474,7.947-27.364,17.86-35.833,32.41c-6.613,11.361-12.79,22.977-19.12,34.502 C258.749,359.667,254.683,367.241,249.775,376.288z M337.981,384.927c2.521,0.112,3.505,0.332,4.421,0.172 c32.773-5.734,63.977-16.655,94.716-29.016c1.926-0.774,4.056-3.304,4.416-5.315c1.396-7.816,2.633-15.734,2.946-23.653 c0.345-8.736-5.987-17.836-12.959-20.29c-9.411-3.313-18.699-2.7-27.73,1.246c-12.325,5.385-22.381,13.891-30.371,24.49 c-8.788,11.659-16.814,23.896-25.048,35.966C344.956,373.536,341.867,378.769,337.981,384.927z"/>
	<path fill="#224445" d="M781.984,116.479c-0.329,4.468-0.581,8.942-1.002,13.402c-1.173,12.401-2.542,24.786-3.602,37.197 c-1.683,19.716-3.193,39.446-4.743,59.174c-1.12,14.249-2.093,28.511-3.3,42.752c-1.333,15.72-1.891,31.586-4.508,47.099 c-5.202,30.829-10.8,61.638-17.766,92.105c-4.437,19.401-11.633,38.171-17.567,57.23c-0.676,2.172-1.201,4.39-1.96,7.188 c3.099,0,5.504,0.127,7.892-0.02c17.188-1.06,34.027-3.161,49.523-11.812c15.434-8.616,24.593-22.001,29.136-38.307 c2.596-9.319,2.505-19.396,3.52-29.145c1.15-11.07,2.123-22.158,3.282-33.227c1.783-17.011,3.833-33.995,5.454-51.021 c1.891-19.848,3.528-39.721,5.11-59.597c1.2-15.07,1.838-30.19,3.274-45.236c1.851-19.353,4.893-38.608,6.203-57.989 c1.02-15.041,9.073-25.977,17.561-37.176c7.338-9.684,14.138-19.774,21.211-29.659c1.106-1.548,2.404-2.96,4.669-5.723 c0.453,3.198,1.028,4.867,0.863,6.46c-2.171,20.987-4.627,41.945-6.632,62.948c-1.389,14.548-2.089,29.16-3.276,43.729 c-1.458,17.884-3.04,35.758-4.688,53.625c-1.343,14.557-2.729,29.112-4.343,43.642c-1.504,13.541-3.249,27.058-5.041,40.564 c-2.558,19.276-4.85,38.6-7.992,57.781c-4.021,24.547-11.233,48.262-19.344,71.789c-5.655,16.408-12.74,31.883-23.102,45.719 c-11.982,15.998-27.982,26.424-47.264,31.511c-11.335,2.989-21.29-1.215-28.296-9.634c-7.058-8.483-12.474-18.386-18.192-27.915 c-4.182-6.968-1.582-14.648-1.056-22.015c0.688-9.604,1.745-19.186,2.622-28.778c1.24-13.558,2.476-27.115,3.688-40.677 c1.126-12.572,2.254-25.144,3.319-37.721c1.263-14.896,2.487-29.794,3.671-44.695c0.515-6.459,0.857-12.932,1.323-19.395 c1.624-22.527,3.254-45.055,4.907-67.58c0.899-12.252,1.295-24.578,2.99-36.72c0.994-7.12,3.065-14.499,6.444-20.8 c9.974-18.593,20.814-36.72,31.392-54.985c0.988-1.707,2.504-3.108,3.774-4.651C780.758,116.105,781.371,116.292,781.984,116.479z"/>
	<path fill="#224445" d="M1282.654,109.554c0.359,3.078,0.803,4.803,0.725,6.503c-1.104,24.247-2.161,48.496-3.471,72.732 c-1.014,18.766-2.354,37.514-3.562,56.27c-1.293,20.076-2.673,40.147-3.877,60.229c-0.826,13.767-1.539,27.542-2.083,41.322 c-0.695,17.62-1.481,35.247-1.616,52.876c-0.073,9.535,1.853,18.966,6.572,27.438c6.709,12.045,16.34,19.411,30.967,18.788 c6.692-0.285,11.625-3.808,16.342-7.714c13.143-10.885,21.257-25.343,28.169-40.599c0.792-1.749,1.683-3.451,2.526-5.175 c0.519,0.044,1.035,0.088,1.554,0.133c0.133,1.725,0.558,3.484,0.355,5.169c-3.337,27.898-9.854,55.056-20.181,81.181 c-5.518,13.957-12.24,27.531-23.525,37.86c-15.523,14.209-40.298,15.203-56.99,2.645c-15.573-11.718-20.881-28.005-21.621-45.756 c-0.936-22.385,0.037-44.863,0.577-67.291c0.341-14.122,1.272-28.234,2.16-42.337c1.158-18.399,2.581-36.782,3.802-55.178 c0.804-12.104,1.433-24.218,2.168-36.326c1.714-28.221,3.443-56.44,5.168-84.66c0.468-7.636,0.572-15.318,1.556-22.887 c0.49-3.771,1.764-8,4.097-10.875c10.526-12.972,19.38-26.975,27.336-41.604C1280.154,111.648,1280.906,111.211,1282.654,109.554z"/>
	<path fill="#224445" d="M725.734,815.318c-3.562-2.016-6.901-3.486-9.771-5.6c-14.596-10.752-29.06-21.681-43.589-32.521 c-5.068-3.782-5.93-3.65-9.261,1.69c-8.864,14.222-19.257,27.119-32.37,37.681c-4.639,3.736-7.588,3.915-12.647,0.573 c-19.853-13.108-39.688-26.245-59.497-39.423c-5.335-3.549-6.373-8.635-2.394-13.58c12.609-15.671,25.163-31.398,38.247-46.67 c6.484-7.567,8.301-7.268,16.29-1.484c14.14,10.231,28.229,20.534,42.408,30.71c3.498,2.509,7.305,4.582,10.898,6.961 c2.69,1.78,3.812-0.045,5.168-1.886c8.777-11.926,17.604-23.812,26.412-35.715c0.297-0.4,0.551-0.837,0.866-1.224 c9.668-11.85,10.325-9.341,19.333-2.333c11.292,8.786,22.78,17.319,34.12,26.045c6.85,5.271,13.521,10.771,20.381,16.029 c3.176,2.434,3.287,5.443,1.602,8.406c-3.119,5.48-6.074,11.217-10.12,15.979c-9.357,11.012-19.248,21.577-29.12,32.14 C731.02,812.889,728.367,813.765,725.734,815.318z"/>
	<path fill="#224445" d="M1109.266,98.495c-1.164,10.998-2.222,21.249-3.342,31.493c-1.5,13.71-3.116,27.407-4.561,41.122 c-1.984,18.836-3.92,37.678-5.754,56.529c-1.851,19.027-3.531,38.071-5.319,57.104c-2.271,24.147-4.177,48.338-6.971,72.424 c-2.871,24.753-5.671,49.582-10.266,74.047c-4.262,22.699-9.53,45.418-20.723,66.031c-4.197,7.73-9.341,14.953-14.188,22.318 c-0.491,0.747-1.903,0.891-2.89,1.312c-0.493-1.294-1.532-2.652-1.389-3.872c0.931-7.918,2.312-15.784,3.183-23.707 c1.979-17.998,3.82-36.013,5.578-54.034c1.387-14.216,2.625-28.447,3.808-42.683c0.551-6.622,0.816-13.267,1.202-19.901 c1.311-22.554,2.624-45.106,3.921-67.661c0.714-12.438,1.293-24.886,2.115-37.317c1.195-18.062,2.474-36.118,3.872-54.165 c0.963-12.422,1.458-24.943,3.464-37.207c3.293-20.13,13.445-37.479,24.425-54.284c6.1-9.334,12.507-18.468,18.913-27.596 c0.729-1.04,2.298-1.632,3.6-2.017C1108.218,96.354,1109.032,98.116,1109.266,98.495z"/>
	<path fill="#224445" d="M1268.983,904.608c-1.27,2.666-2.101,5.22-3.556,7.345c-10.766,15.715-24.679,28.255-40.066,39.27 c-1.354,0.97-2.807,1.81-4.096,2.854c-4.064,3.289-8.345,3.387-12.405,0.371c-11.876-8.819-23.659-17.767-35.402-26.763 c-7.522-5.762-14.862-11.762-22.372-17.539c-5.306-4.081-5.494-5.521-0.344-9.84c17.204-14.428,34.508-28.735,51.648-43.235 c2.757-2.331,4.455-2.102,7.214,0.1c7.788,6.213,15.949,11.955,23.893,17.978c10.849,8.227,21.667,16.492,32.394,24.874 C1267.189,901.034,1267.845,902.871,1268.983,904.608z"/>
	<path fill="#224445" d="M233.058,892.037c-1.597,3.456-2.425,7.354-4.739,9.902c-11.831,13.022-24,25.741-36.151,38.472 c-3.786,3.966-8,3.577-12.015,0.21c-15.162-12.715-30.32-25.435-45.409-38.234c-3.667-3.109-7.143-6.459-10.56-9.847 c-2.894-2.869-3.165-5.886-0.412-9.272c12.694-15.614,25.224-31.362,37.928-46.969c3.638-4.47,5.073-4.032,9.333-0.537 c10.135,8.313,20.808,15.979,30.84,24.408c9.667,8.123,18.884,16.791,28.091,25.441 C231.483,887.04,231.933,889.606,233.058,892.037z"/>
	<path fill="#224445" d="M105.426,792.709c28.424-10.546,56.847-21.092,86.955-32.263c-4.17-2.555-7.027-4.329-9.91-6.062 c-3.139-1.887-6.291-3.75-9.454-5.596c-11.247-6.562-14.159-16.65-11.836-28.707c4.417-22.924,17.681-39.206,38.705-48.708 c8.125-3.672,17.321-3.301,25.933-0.521c5.727,1.851,8.892,9.089,7.303,16.885c-2.229,10.934-9.235,19.005-17.319,26.155 c-2.863,2.533-5.389,0.828-7.916-1.301c-5.826-4.909-12.353-7.515-19.748-3.704c-2.004,1.032-4.899,3.503-4.697,4.935 c0.332,2.343,2.409,5.199,4.554,6.385c6.949,3.841,14.325,6.898,21.421,10.486c6.836,3.455,13.228,7.647,14.212,16.102 c0.359,3.087,0.009,6.711-1.318,9.464c-7.06,14.646-19.056,24.174-33.687,30.463c-15.265,6.562-31.062,11.083-47.942,10.225 c-10.141-0.518-20.279-1.108-30.412-1.768c-1.684-0.109-3.333-0.739-4.999-1.129C105.323,793.604,105.375,793.156,105.426,792.709 z"/>
</svg>